# xmcd
# 
# Track frame offsets:
#     183
#     10850
#     23330
#     34328
#     46840
#     57558
#     67828
#     80645
#     92245
#     103943
#     118268
#     131153
#     144675
#     164590
#     175200
#     188050
#     201100
#     220033
#     231570
#     249868
# 
# Disc length: 3556
# 
# Revision: 3
# Processed by: cddbd v1.5.2PL0 Copyright (c) Steve Scherf et al.
# Submitted via: fre:ac v1.0.17
# 
DISCID=200de214
DTITLE=The Monkees - Greatest Hits
DYEAR=0
DGENRE=Pop
TTITLE0=(Theme From) The Monkees
TTITLE1=Last Train To Clarksville
TTITLE2=I Wanna Be Free
TTITLE3=I'm A Believer
TTITLE4=(I'm Not Your) Steppin' Stone (Single Version)
TTITLE5=Mary, Mary
TTITLE6=A Little Bit Me, A Little Bit You
TTITLE7=The Girl I Knew Somewhere
TTITLE8=Randy Scouse Git
TTITLE9=Pleasant Valley Sunday (Single Version)
TTITLE10=Words (Single Version)
TTITLE11=Daydream Believer
TTITLE12=Goin' Down
TTITLE13=Valleri
TTITLE14=D. W. Washburn
TTITLE15=It's Nice To Be With You
TTITLE16=Porpoise Song (Theme From -Head-)  (Single Version)
TTITLE17=Listen To The Band (Single Version)
TTITLE18=That Was Then, This Is Now
TTITLE19=Heart And Soul
EXTD=
EXTT0=
EXTT1=
EXTT2=
EXTT3=
EXTT4=
EXTT5=
EXTT6=
EXTT7=
EXTT8=
EXTT9=
EXTT10=
EXTT11=
EXTT12=
EXTT13=
EXTT14=
EXTT15=
EXTT16=
EXTT17=
EXTT18=
EXTT19=
PLAYORDER=
